<svg xmlns="http://www.w3.org/2000/svg"
    xmlns:xlink="http://www.w3.org/1999/xlink" width="800" height="600" version="1.1" viewBox="0 0 800 600">
    <g>
        <path d="m193.07708,524.84422c0,0.88124 52.87463,-71.38075 71.38075,-76.66821c18.50612,-5.28746 410.65962,-5.28746 410.57493,-5.79162c0.08469,0.50415 11.54086,-1.25833 16.82833,-6.5458c5.28746,-5.28746 5.28746,-5.28746 5.20277,-5.79162c0.08469,0.50415 2.72843,-355.51835 -1.67779,-360.80581c-4.40622,-5.28746 -21.14985,-6.16871 -21.23455,-6.67285c0.08469,0.50415 -523.37414,-2.13959 -532.18658,2.26663c-8.81244,4.40622 -7.93119,17.62488 -8.01588,17.12073c0.08468,0.50415 0.08468,347.71421 5.37214,357.4079c5.28746,9.69368 24.67483,10.57493 24.59014,10.07077c0.08468,0.50415 45.90936,-1.25833 45.82468,-1.76249c0.08468,0.50415 -16.65895,76.29112 -16.65895,77.17237z" fill="#222"></path>
    </g>
</svg>